<mxfile host="app.diagrams.net" modified="2023-05-11T22:49:45.629Z" agent="Mozilla/5.0 (Windows NT 10.0; Win64; x64) AppleWebKit/537.36 (KHTML, like Gecko) Chrome/113.0.0.0 Safari/537.36" etag="BLVj_CJO3IT32hfF_z1W" version="21.2.9" type="device">
  <diagram name="Страница 1" id="86RH3YBvT5QpNvCTVmEq">
    <mxGraphModel dx="1145" dy="1451" grid="1" gridSize="10" guides="1" tooltips="1" connect="1" arrows="1" fold="1" page="1" pageScale="1" pageWidth="1169" pageHeight="827" math="0" shadow="0">
      <root>
        <mxCell id="0" />
        <mxCell id="1" parent="0" />
        <mxCell id="iWeErLhrP4zShz-nOeAp-1" value="" style="edgeStyle=orthogonalEdgeStyle;rounded=0;orthogonalLoop=1;jettySize=auto;html=1;" parent="1" source="c0X-KQjPGDWnd0PGhxE9-1" target="c0X-KQjPGDWnd0PGhxE9-9" edge="1">
          <mxGeometry relative="1" as="geometry" />
        </mxCell>
        <mxCell id="c0X-KQjPGDWnd0PGhxE9-1" value="&lt;font style=&quot;font-size: 20px;&quot;&gt;START&lt;/font&gt;" style="rounded=1;whiteSpace=wrap;html=1;" parent="1" vertex="1">
          <mxGeometry x="390.25" y="42" width="165" height="40" as="geometry" />
        </mxCell>
        <mxCell id="iWeErLhrP4zShz-nOeAp-2" value="" style="edgeStyle=orthogonalEdgeStyle;rounded=0;orthogonalLoop=1;jettySize=auto;html=1;" parent="1" source="c0X-KQjPGDWnd0PGhxE9-9" target="7ndG9vL9PM8b2q_OoTUC-3" edge="1">
          <mxGeometry relative="1" as="geometry" />
        </mxCell>
        <mxCell id="c0X-KQjPGDWnd0PGhxE9-9" value="&lt;div style=&quot;text-align: left; font-size: 20px;&quot;&gt;&lt;span style=&quot;font-family: Verdana; background-color: initial;&quot;&gt;&lt;font style=&quot;font-size: 20px;&quot;&gt;string[ ] arr0&lt;/font&gt;&lt;/span&gt;&lt;/div&gt;&lt;font style=&quot;font-size: 20px;&quot;&gt;&lt;div style=&quot;text-align: left;&quot;&gt;&lt;span style=&quot;font-family: Verdana; background-color: initial;&quot;&gt;int count&lt;/span&gt;&lt;/div&gt;&lt;/font&gt;" style="rounded=0;whiteSpace=wrap;html=1;" parent="1" vertex="1">
          <mxGeometry x="392.5" y="130" width="160" height="110" as="geometry" />
        </mxCell>
        <mxCell id="fRNPZwXWiTXHMcFOEDf--3" value="" style="edgeStyle=orthogonalEdgeStyle;rounded=0;orthogonalLoop=1;jettySize=auto;html=1;" edge="1" parent="1" source="7ndG9vL9PM8b2q_OoTUC-3" target="_GoPckJ3M7HyXB1nk2kb-20">
          <mxGeometry relative="1" as="geometry" />
        </mxCell>
        <mxCell id="7ndG9vL9PM8b2q_OoTUC-3" value="&lt;font style=&quot;font-size: 20px;&quot;&gt;arr0[ ]&lt;/font&gt;" style="shape=parallelogram;perimeter=parallelogramPerimeter;whiteSpace=wrap;html=1;fixedSize=1;" parent="1" vertex="1">
          <mxGeometry x="396.25" y="283" width="152.5" height="50" as="geometry" />
        </mxCell>
        <mxCell id="7ndG9vL9PM8b2q_OoTUC-7" value="&lt;h1 style=&quot;font-size: 20px;&quot;&gt;&lt;span style=&quot;font-weight: normal;&quot;&gt;&lt;font style=&quot;font-size: 20px;&quot;&gt;- вводим с клавиатуры одномерный символьный&amp;nbsp; &amp;nbsp; массив arr0[ ], окончание ввода- пустая строка&lt;/font&gt;&lt;/span&gt;&lt;/h1&gt;&lt;div style=&quot;font-size: 20px;&quot;&gt;&lt;span style=&quot;font-weight: normal;&quot;&gt;&lt;font style=&quot;font-size: 18px;&quot;&gt;&lt;br&gt;&lt;/font&gt;&lt;/span&gt;&lt;/div&gt;" style="text;html=1;strokeColor=none;fillColor=none;spacing=5;spacingTop=-20;whiteSpace=wrap;overflow=hidden;rounded=0;" parent="1" vertex="1">
          <mxGeometry x="607" y="333" width="430" height="87" as="geometry" />
        </mxCell>
        <mxCell id="7ndG9vL9PM8b2q_OoTUC-8" value="&lt;h1 style=&quot;font-size: 20px;&quot;&gt;&lt;font style=&quot;font-size: 20px;&quot;&gt;&lt;span style=&quot;font-weight: 400;&quot;&gt;&lt;font style=&quot;font-size: 20px;&quot;&gt;&amp;nbsp; &amp;nbsp; &amp;nbsp; &amp;nbsp; &amp;nbsp; &amp;nbsp; &amp;nbsp; &amp;nbsp; &amp;nbsp;- определяем переменные:&lt;/font&gt;&lt;/span&gt;&amp;nbsp;&lt;/font&gt;&lt;/h1&gt;&lt;font style=&quot;font-size: 20px;&quot;&gt;&lt;font style=&quot;font-size: 20px;&quot;&gt;&lt;font style=&quot;font-size: 20px;&quot;&gt;string[ ] arr0&lt;/font&gt;&amp;nbsp;&lt;span style=&quot;background-color: initial;&quot;&gt;-&amp;nbsp; &lt;font style=&quot;font-size: 20px;&quot;&gt;ссылка на массив строк&lt;/font&gt;&lt;br&gt;&lt;/span&gt;&lt;font style=&quot;font-size: 20px;&quot;&gt;int count&lt;/font&gt;&lt;span style=&quot;background-color: initial;&quot;&gt;&amp;nbsp; &amp;nbsp;-&amp;nbsp;&lt;/span&gt;&lt;/font&gt;&lt;font style=&quot;font-size: 20px;&quot;&gt;&lt;font style=&quot;font-size: 20px;&quot;&gt;&lt;font style=&quot;font-size: 20px;&quot;&gt;текущее количество строк в массиве&lt;/font&gt;&lt;br&gt;&lt;/font&gt;&lt;br&gt;&lt;/font&gt;&lt;/font&gt;" style="text;html=1;strokeColor=none;fillColor=none;spacing=5;spacingTop=-20;whiteSpace=wrap;overflow=hidden;rounded=0;" parent="1" vertex="1">
          <mxGeometry x="590" y="130" width="470" height="138" as="geometry" />
        </mxCell>
        <mxCell id="7ndG9vL9PM8b2q_OoTUC-10" value="&lt;font style=&quot;font-size: 24px;&quot;&gt;Блок схема ввода с клавиатуры символьного массива.&lt;br&gt;Вывод в консоль исходного массива и результирующего массива,&amp;nbsp;&lt;br&gt;содержащего строки&amp;nbsp; меньше четырех символов:&lt;br&gt;&lt;/font&gt;" style="text;html=1;strokeColor=none;fillColor=none;spacing=5;spacingTop=-20;whiteSpace=wrap;overflow=hidden;rounded=0;fontSize=20;align=center;" parent="1" vertex="1">
          <mxGeometry x="200" y="-47" width="753" height="80" as="geometry" />
        </mxCell>
        <mxCell id="_GoPckJ3M7HyXB1nk2kb-5" value="&lt;h1 style=&quot;border-color: var(--border-color);&quot;&gt;&lt;font style=&quot;border-color: var(--border-color); font-size: 20px; font-weight: normal;&quot;&gt;- переписываем строки исходного массив с символами меньше четырех в промежуточный массив arr1 [ ].&amp;nbsp;&lt;/font&gt;&lt;/h1&gt;&lt;div&gt;&lt;font style=&quot;border-color: var(--border-color); font-size: 20px; font-weight: normal;&quot;&gt;- строки с символами больше трех очищаем и записываем в arr1 [ ]&lt;/font&gt;&lt;/div&gt;" style="text;html=1;strokeColor=none;fillColor=none;spacing=5;spacingTop=-20;whiteSpace=wrap;overflow=hidden;rounded=0;" parent="1" vertex="1">
          <mxGeometry x="650" y="570" width="390" height="170" as="geometry" />
        </mxCell>
        <mxCell id="fRNPZwXWiTXHMcFOEDf--4" style="edgeStyle=orthogonalEdgeStyle;rounded=0;orthogonalLoop=1;jettySize=auto;html=1;" edge="1" parent="1" source="_GoPckJ3M7HyXB1nk2kb-20">
          <mxGeometry relative="1" as="geometry">
            <mxPoint x="473" y="260" as="targetPoint" />
            <Array as="points">
              <mxPoint x="320" y="420" />
              <mxPoint x="320" y="260" />
            </Array>
          </mxGeometry>
        </mxCell>
        <mxCell id="fRNPZwXWiTXHMcFOEDf--7" value="" style="edgeStyle=orthogonalEdgeStyle;rounded=0;orthogonalLoop=1;jettySize=auto;html=1;" edge="1" parent="1" source="_GoPckJ3M7HyXB1nk2kb-20" target="fRNPZwXWiTXHMcFOEDf--6">
          <mxGeometry relative="1" as="geometry" />
        </mxCell>
        <mxCell id="fRNPZwXWiTXHMcFOEDf--31" style="edgeStyle=orthogonalEdgeStyle;rounded=0;orthogonalLoop=1;jettySize=auto;html=1;exitX=0.5;exitY=1;exitDx=0;exitDy=0;entryX=0.25;entryY=0;entryDx=0;entryDy=0;" edge="1" parent="1" source="_GoPckJ3M7HyXB1nk2kb-20" target="_GoPckJ3M7HyXB1nk2kb-81">
          <mxGeometry relative="1" as="geometry">
            <mxPoint x="170" y="1170" as="targetPoint" />
            <Array as="points">
              <mxPoint x="473" y="490" />
              <mxPoint x="111" y="490" />
              <mxPoint x="111" y="1190" />
              <mxPoint x="164" y="1190" />
            </Array>
          </mxGeometry>
        </mxCell>
        <mxCell id="_GoPckJ3M7HyXB1nk2kb-20" value="&lt;font style=&quot;font-size: 20px;&quot;&gt;string==null&lt;/font&gt;" style="rhombus;whiteSpace=wrap;html=1;" parent="1" vertex="1">
          <mxGeometry x="382.75" y="370" width="180" height="100" as="geometry" />
        </mxCell>
        <mxCell id="_GoPckJ3M7HyXB1nk2kb-24" value="&lt;h1&gt;&lt;font style=&quot;font-size: 20px; font-weight: normal;&quot;&gt;нет&lt;/font&gt;&lt;/h1&gt;" style="text;html=1;strokeColor=none;fillColor=none;spacing=5;spacingTop=-20;whiteSpace=wrap;overflow=hidden;rounded=0;fontSize=20;" parent="1" vertex="1">
          <mxGeometry x="331.25" y="349" width="40" height="80" as="geometry" />
        </mxCell>
        <mxCell id="fRNPZwXWiTXHMcFOEDf--28" value="" style="edgeStyle=orthogonalEdgeStyle;rounded=0;orthogonalLoop=1;jettySize=auto;html=1;" edge="1" parent="1" source="_GoPckJ3M7HyXB1nk2kb-81" target="_GoPckJ3M7HyXB1nk2kb-82">
          <mxGeometry relative="1" as="geometry" />
        </mxCell>
        <mxCell id="_GoPckJ3M7HyXB1nk2kb-81" value="&lt;div style=&quot;text-align: left; font-size: 20px;&quot;&gt;&lt;font style=&quot;font-size: 20px;&quot;&gt;arr0[ ]&lt;br&gt;&lt;/font&gt;&lt;/div&gt;&lt;div style=&quot;text-align: left; font-size: 20px;&quot;&gt;&lt;font style=&quot;font-size: 20px;&quot;&gt;arr2[ ]&lt;/font&gt;&lt;/div&gt;" style="shape=document;whiteSpace=wrap;html=1;boundedLbl=1;" parent="1" vertex="1">
          <mxGeometry x="100" y="1220" width="260" height="110" as="geometry" />
        </mxCell>
        <mxCell id="_GoPckJ3M7HyXB1nk2kb-82" value="&lt;font style=&quot;font-size: 20px;&quot;&gt;STOP&lt;/font&gt;" style="rounded=1;whiteSpace=wrap;html=1;" parent="1" vertex="1">
          <mxGeometry x="170" y="1350" width="120" height="60" as="geometry" />
        </mxCell>
        <mxCell id="XWG273ggx38zAalYpEpd-14" value="&lt;h1&gt;&lt;span style=&quot;font-weight: 400;&quot;&gt;&lt;font style=&quot;font-size: 20px;&quot;&gt;да&lt;/font&gt;&lt;/span&gt;&lt;/h1&gt;" style="text;html=1;strokeColor=none;fillColor=none;spacing=5;spacingTop=-20;whiteSpace=wrap;overflow=hidden;rounded=0;" parent="1" vertex="1">
          <mxGeometry x="490.62000000000006" y="470" width="40" height="30" as="geometry" />
        </mxCell>
        <mxCell id="fRNPZwXWiTXHMcFOEDf--20" value="" style="edgeStyle=orthogonalEdgeStyle;rounded=0;orthogonalLoop=1;jettySize=auto;html=1;" edge="1" parent="1" source="fRNPZwXWiTXHMcFOEDf--1" target="fRNPZwXWiTXHMcFOEDf--8">
          <mxGeometry relative="1" as="geometry" />
        </mxCell>
        <mxCell id="fRNPZwXWiTXHMcFOEDf--1" value="&lt;div style=&quot;text-align: left;&quot;&gt;&lt;span style=&quot;background-color: initial; font-family: Verdana; font-size: 20px;&quot;&gt;arr1[ ]&lt;/span&gt;&lt;/div&gt;" style="rounded=0;whiteSpace=wrap;html=1;" vertex="1" parent="1">
          <mxGeometry x="392.75" y="740" width="160" height="70" as="geometry" />
        </mxCell>
        <mxCell id="fRNPZwXWiTXHMcFOEDf--9" value="" style="edgeStyle=orthogonalEdgeStyle;rounded=0;orthogonalLoop=1;jettySize=auto;html=1;" edge="1" parent="1" source="fRNPZwXWiTXHMcFOEDf--6" target="fRNPZwXWiTXHMcFOEDf--1">
          <mxGeometry relative="1" as="geometry" />
        </mxCell>
        <mxCell id="fRNPZwXWiTXHMcFOEDf--15" style="edgeStyle=orthogonalEdgeStyle;rounded=0;orthogonalLoop=1;jettySize=auto;html=1;entryX=0.458;entryY=-0.029;entryDx=0;entryDy=0;entryPerimeter=0;" edge="1" parent="1" source="fRNPZwXWiTXHMcFOEDf--6" target="fRNPZwXWiTXHMcFOEDf--11">
          <mxGeometry relative="1" as="geometry">
            <mxPoint x="240" y="690" as="targetPoint" />
            <Array as="points">
              <mxPoint x="223" y="608" />
            </Array>
          </mxGeometry>
        </mxCell>
        <mxCell id="fRNPZwXWiTXHMcFOEDf--6" value="&lt;font style=&quot;font-size: 20px;&quot;&gt;arr0[ ]&lt;br&gt;string&amp;lt;= 3&lt;/font&gt;" style="rhombus;whiteSpace=wrap;html=1;" vertex="1" parent="1">
          <mxGeometry x="325.78" y="525" width="293.44" height="165" as="geometry" />
        </mxCell>
        <mxCell id="fRNPZwXWiTXHMcFOEDf--22" value="" style="edgeStyle=orthogonalEdgeStyle;rounded=0;orthogonalLoop=1;jettySize=auto;html=1;" edge="1" parent="1" source="fRNPZwXWiTXHMcFOEDf--8" target="fRNPZwXWiTXHMcFOEDf--21">
          <mxGeometry relative="1" as="geometry" />
        </mxCell>
        <mxCell id="fRNPZwXWiTXHMcFOEDf--25" value="" style="edgeStyle=orthogonalEdgeStyle;rounded=0;orthogonalLoop=1;jettySize=auto;html=1;" edge="1" parent="1" source="fRNPZwXWiTXHMcFOEDf--8" target="fRNPZwXWiTXHMcFOEDf--24">
          <mxGeometry relative="1" as="geometry" />
        </mxCell>
        <mxCell id="fRNPZwXWiTXHMcFOEDf--8" value="&lt;font style=&quot;font-size: 20px;&quot;&gt;arr1[ ]&lt;br style=&quot;border-color: var(--border-color);&quot;&gt;string&amp;lt;= 3&lt;/font&gt;" style="rhombus;whiteSpace=wrap;html=1;" vertex="1" parent="1">
          <mxGeometry x="325.56" y="875" width="293.44" height="165" as="geometry" />
        </mxCell>
        <mxCell id="fRNPZwXWiTXHMcFOEDf--10" value="&lt;h1&gt;&lt;span style=&quot;font-weight: 400;&quot;&gt;&lt;font style=&quot;font-size: 20px;&quot;&gt;да&lt;/font&gt;&lt;/span&gt;&lt;/h1&gt;" style="text;html=1;strokeColor=none;fillColor=none;spacing=5;spacingTop=-20;whiteSpace=wrap;overflow=hidden;rounded=0;" vertex="1" parent="1">
          <mxGeometry x="490.62" y="690" width="40" height="30" as="geometry" />
        </mxCell>
        <mxCell id="fRNPZwXWiTXHMcFOEDf--17" style="edgeStyle=orthogonalEdgeStyle;rounded=0;orthogonalLoop=1;jettySize=auto;html=1;" edge="1" parent="1" source="fRNPZwXWiTXHMcFOEDf--11">
          <mxGeometry relative="1" as="geometry">
            <mxPoint x="470" y="705" as="targetPoint" />
          </mxGeometry>
        </mxCell>
        <mxCell id="fRNPZwXWiTXHMcFOEDf--11" value="&lt;div style=&quot;text-align: left;&quot;&gt;&lt;font style=&quot;font-size: 20px;&quot;&gt;string==null&lt;/font&gt;&lt;br&gt;&lt;/div&gt;" style="rounded=0;whiteSpace=wrap;html=1;" vertex="1" parent="1">
          <mxGeometry x="149.99999999999997" y="670" width="160" height="70" as="geometry" />
        </mxCell>
        <mxCell id="fRNPZwXWiTXHMcFOEDf--14" value="&lt;h1&gt;&lt;font style=&quot;font-size: 20px; font-weight: normal;&quot;&gt;нет&lt;/font&gt;&lt;/h1&gt;" style="text;html=1;strokeColor=none;fillColor=none;spacing=5;spacingTop=-20;whiteSpace=wrap;overflow=hidden;rounded=0;fontSize=20;" vertex="1" parent="1">
          <mxGeometry x="291.25" y="525" width="40" height="80" as="geometry" />
        </mxCell>
        <mxCell id="fRNPZwXWiTXHMcFOEDf--19" value="&lt;h1 style=&quot;border-color: var(--border-color);&quot;&gt;&lt;font style=&quot;border-color: var(--border-color); font-size: 20px; font-weight: normal;&quot;&gt;- переписываем строки с символами меньше четырех в результирующий&amp;nbsp; массив arr2 [ ].&amp;nbsp;&lt;/font&gt;&lt;/h1&gt;" style="text;html=1;strokeColor=none;fillColor=none;spacing=5;spacingTop=-20;whiteSpace=wrap;overflow=hidden;rounded=0;" vertex="1" parent="1">
          <mxGeometry x="607" y="1050" width="390" height="100" as="geometry" />
        </mxCell>
        <mxCell id="fRNPZwXWiTXHMcFOEDf--29" style="edgeStyle=orthogonalEdgeStyle;rounded=0;orthogonalLoop=1;jettySize=auto;html=1;entryX=0.546;entryY=0.027;entryDx=0;entryDy=0;entryPerimeter=0;" edge="1" parent="1" source="fRNPZwXWiTXHMcFOEDf--21" target="_GoPckJ3M7HyXB1nk2kb-81">
          <mxGeometry relative="1" as="geometry">
            <mxPoint x="450" y="1240" as="targetPoint" />
            <Array as="points">
              <mxPoint x="473" y="1190" />
              <mxPoint x="242" y="1190" />
            </Array>
          </mxGeometry>
        </mxCell>
        <mxCell id="fRNPZwXWiTXHMcFOEDf--21" value="&lt;div style=&quot;text-align: left;&quot;&gt;&lt;span style=&quot;background-color: initial; font-family: Verdana; font-size: 20px;&quot;&gt;arr2[ ]&lt;/span&gt;&lt;/div&gt;" style="rounded=0;whiteSpace=wrap;html=1;" vertex="1" parent="1">
          <mxGeometry x="392.75" y="1080" width="160" height="70" as="geometry" />
        </mxCell>
        <mxCell id="fRNPZwXWiTXHMcFOEDf--23" value="&lt;h1&gt;&lt;span style=&quot;font-weight: 400;&quot;&gt;&lt;font style=&quot;font-size: 20px;&quot;&gt;да&lt;/font&gt;&lt;/span&gt;&lt;/h1&gt;" style="text;html=1;strokeColor=none;fillColor=none;spacing=5;spacingTop=-20;whiteSpace=wrap;overflow=hidden;rounded=0;" vertex="1" parent="1">
          <mxGeometry x="490.62" y="1040" width="40" height="30" as="geometry" />
        </mxCell>
        <mxCell id="fRNPZwXWiTXHMcFOEDf--26" style="edgeStyle=orthogonalEdgeStyle;rounded=0;orthogonalLoop=1;jettySize=auto;html=1;" edge="1" parent="1" source="fRNPZwXWiTXHMcFOEDf--24">
          <mxGeometry relative="1" as="geometry">
            <mxPoint x="470" y="850" as="targetPoint" />
            <Array as="points">
              <mxPoint x="211" y="850" />
            </Array>
          </mxGeometry>
        </mxCell>
        <mxCell id="fRNPZwXWiTXHMcFOEDf--24" value="&lt;div style=&quot;text-align: left;&quot;&gt;&lt;font style=&quot;font-size: 20px;&quot;&gt;string==null&lt;/font&gt;&lt;br&gt;&lt;/div&gt;&lt;div style=&quot;text-align: left;&quot;&gt;&lt;font style=&quot;font-size: 20px;&quot;&gt;&lt;br&gt;&lt;/font&gt;&lt;/div&gt;" style="rounded=0;whiteSpace=wrap;html=1;" vertex="1" parent="1">
          <mxGeometry x="131.25" y="922.5" width="160" height="70" as="geometry" />
        </mxCell>
        <mxCell id="fRNPZwXWiTXHMcFOEDf--27" value="&lt;h1&gt;&lt;font style=&quot;font-size: 20px; font-weight: normal;&quot;&gt;нет&lt;/font&gt;&lt;/h1&gt;" style="text;html=1;strokeColor=none;fillColor=none;spacing=5;spacingTop=-20;whiteSpace=wrap;overflow=hidden;rounded=0;fontSize=20;" vertex="1" parent="1">
          <mxGeometry x="300" y="875" width="40" height="80" as="geometry" />
        </mxCell>
        <mxCell id="fRNPZwXWiTXHMcFOEDf--32" value="&lt;h1 style=&quot;border-color: var(--border-color);&quot;&gt;&lt;font style=&quot;border-color: var(--border-color); font-size: 20px; font-weight: normal;&quot;&gt;- выводим на печать для визуального контроля исходный и результирующий&amp;nbsp; массивы.&amp;nbsp;&lt;/font&gt;&lt;/h1&gt;" style="text;html=1;strokeColor=none;fillColor=none;spacing=5;spacingTop=-20;whiteSpace=wrap;overflow=hidden;rounded=0;" vertex="1" parent="1">
          <mxGeometry x="430" y="1230" width="430" height="100" as="geometry" />
        </mxCell>
      </root>
    </mxGraphModel>
  </diagram>
</mxfile>
